<?xml version="1.0" encoding="UTF-8" standalone="no"?>
<svg
   viewBox="0 0 960 720"
   preserveAspectRatio="none"
   width="960"
   height="720"
   version="1.1"
   id="svg1"
   sodipodi:docname="LexTego-logo.svg"
   xml:space="preserve"
   inkscape:version="1.3.2 (091e20e, 2023-11-25)"
   xmlns:inkscape="http://www.inkscape.org/namespaces/inkscape"
   xmlns:sodipodi="http://sodipodi.sourceforge.net/DTD/sodipodi-0.dtd"
   xmlns="http://www.w3.org/2000/svg"
   xmlns:svg="http://www.w3.org/2000/svg"><defs
     id="defs1" /><sodipodi:namedview
     id="namedview1"
     pagecolor="#ffffff"
     bordercolor="#000000"
     borderopacity="0.25"
     inkscape:showpageshadow="2"
     inkscape:pageopacity="0.0"
     inkscape:pagecheckerboard="0"
     inkscape:deskcolor="#d1d1d1"
     showgrid="false"
     inkscape:zoom="0.76924401"
     inkscape:cx="648.03885"
     inkscape:cy="435.49251"
     inkscape:window-width="2496"
     inkscape:window-height="1387"
     inkscape:window-x="1920"
     inkscape:window-y="25"
     inkscape:window-maximized="1"
     inkscape:current-layer="svg1" /><g
     id="g1"><path
       style="fill:#fdfdfd"
       d="M 0,360 V 0 H 480 960 V 360 720 H 480 0 Z m 363.24914,134.25 16.72707,-16.75 -56.60852,-55.9508 c -31.13469,-30.77294 -57.56684,-56.69789 -58.73811,-57.611 -2.08473,-1.62523 -2.9299,-0.87357 -40.12958,35.68928 l -38,37.34946 17.24735,17.25525 17.24734,17.25525 20.92363,-20.90583 20.92363,-20.90584 40.13271,39.88628 c 37.81523,37.58302 41.76484,41.38454 43.03637,41.42264 0.28107,0.008 8.03822,-7.52219 17.23811,-16.73469 z M 188.66942,431.74484 C 212.77624,407.95451 238.9125,382.22398 246.75,374.56589 254.5875,366.9078 261,360.35827 261,360.01138 c 0,-0.34689 -17.13491,-17.43903 -38.07758,-37.98253 l -38.07758,-37.35183 -16.92357,16.90161 -16.92358,16.90161 20.75116,20.84207 20.75115,20.84206 -41.27294,40.66782 -41.27294,40.66781 16.76921,16.75 c 9.22306,9.2125 17.07212,16.75 17.44236,16.75 0.37023,0 20.39691,-19.46482 44.50373,-43.25516 z M 354.20802,380.78453 333.2287,359.9963 374.36435,318.98549 415.5,277.97467 398.75827,261.48734 c -9.20794,-9.06804 -17.08294,-16.46565 -17.5,-16.43915 C 380.84122,245.0747 354.4,270.96565 322.5,302.58364 l -58,57.48726 37.9301,37.4022 37.93011,37.40221 17.41357,-16.65128 17.41357,-16.65128 z m 382.39756,22.70761 c 11.87171,-5.80828 13.52946,-11.67566 13.16192,-46.58476 L 749.5,331.5 742.75,331.20431 736,330.90862 v 3.05988 3.05988 l -3.77336,-2.49709 c -7.06957,-4.67842 -17.35647,-5.10111 -25.21718,-1.03618 -4.4163,2.28376 -10.62201,10.04939 -12.01954,15.0409 -1.59466,5.69555 -1.60803,13.61867 -0.0327,19.37622 1.59304,5.82226 10.80487,15.15469 16.6588,16.87687 6.84742,2.01446 12.51075,1.5092 18.83393,-1.68028 l 5.7318,-2.89118 -0.67185,3.64118 c -1.30606,7.07829 -7.74815,10.86529 -16.68291,9.8071 -2.69372,-0.31904 -6.18874,-1.49938 -7.7667,-2.62299 C 708.81928,389.44719 706.63805,389 701.09563,389 c -8.00765,0 -8.51135,0.62467 -4.84563,6.00929 5.70722,8.38342 15.03869,12.29187 27.59728,11.55899 5.26888,-0.30748 8.87794,-1.17765 12.7583,-3.07614 z m -22.3929,-32.63082 C 709.7928,368.03112 708,364.1998 708,357.58446 c 0,-4.73842 0.43543,-6.0108 3.09274,-9.03731 4.01085,-4.5681 9.46486,-6.29588 14.81452,-4.69308 2.20663,0.66112 5.25336,2.70377 7,4.69308 2.65731,3.02651 3.09274,4.29889 3.09274,9.03731 0,3.03317 -0.69685,6.86241 -1.54855,8.50942 -3.43752,6.64743 -13.57394,9.03516 -20.23877,4.76744 z m -211.79085,14.71224 c 5.42461,-1.63257 10.27367,-4.71113 12.86823,-8.16978 l 1.79006,-2.38622 -5.51709,-2.70583 -5.51709,-2.70583 -3.77297,2.11174 c -8.24994,4.61753 -17.88171,3.44932 -22.26033,-2.69989 C 475.7413,363.0192 475.80349,363 499.5,363 H 521 v -3.84107 c 0,-13.86949 -9.7146,-25.66193 -23.07965,-28.01614 -13.9683,-2.46047 -26.38011,3.85272 -32.02994,16.29183 -2.19298,4.82826 -2.46591,16.20981 -0.51929,21.65558 4.91561,13.75171 21.54499,21.1499 37.05071,16.48336 z M 479.23049,349.75 c 0.81094,-1.2375 2.95737,-3.2625 4.76986,-4.5 6.58829,-4.49826 17.32727,-2.27836 21.76916,4.5 l 1.47443,2.25 H 492.5 477.75606 Z m 188.50771,35.7351 c 3.2463,-0.96404 6.85761,-3.11744 9.93151,-5.92209 l 4.83029,-4.4072 -5.94591,-2.65194 -5.94592,-2.65193 -4.05408,2.29491 c -5.145,2.91245 -13.89205,3.17218 -17.92125,0.53215 -2.50344,-1.64032 -6.62022,-7.17326 -6.6291,-8.9095 -0.002,-0.40177 9.78376,-0.85177 21.74626,-1 L 685.5,362.5 685.15894,357 c -0.97194,-15.67385 -12.51995,-26.22222 -28.70721,-26.22222 -8.57082,0 -14.16682,2.18996 -19.83764,7.76334 -5.72203,5.62372 -8.0105,11.44727 -8.03967,20.45888 -0.0301,9.28371 2.53899,15.16939 9.16846,21.00487 7.51352,6.61367 19.06924,8.72493 29.99532,5.48023 z M 643,351.14602 c 0,-1.52486 4.85425,-6.14011 7.52679,-7.15621 C 651.95867,343.44542 654.87161,343 657,343 c 2.12839,0 5.04133,0.44542 6.47321,0.98981 2.67254,1.0161 7.52679,5.63135 7.52679,7.15621 0,0.46969 -6.3,0.85398 -14,0.85398 -7.7,0 -14,-0.38429 -14,-0.85398 z m 158.61647,33.05161 c 12.92787,-6.60149 18.92967,-19.9274 15.02477,-33.35978 -4.63831,-15.95522 -24.44053,-24.95434 -39.19464,-17.812 -10.26089,4.96721 -15.6224,13.12212 -16.2649,24.73907 -0.34963,6.32158 -0.0556,7.97252 2.2644,12.71443 3.24087,6.62411 10.26673,13.0373 16.46302,15.02742 6.23138,2.00138 16.42861,1.3864 21.70735,-1.30914 z M 781.04081,371.38088 C 776.91421,367.90858 775,363.99089 775,359.01754 c 0,-11.66358 9.17173,-18.51509 19.50329,-14.56943 10.92836,4.17357 12.30318,21.43099 2.19816,27.59237 -4.80015,2.92683 -11.7461,2.63428 -15.66064,-0.6596 z M 458,379 v -7 h -9.98512 -9.98512 L 437.76488,342.25 437.5,312.5 430.25,312.20619 423,311.91238 V 348.95619 386 h 17.5 17.5 z m 88.5,-1.51049 c 3.3,-4.6506 6.225,-8.45091 6.5,-8.44515 0.275,0.006 3.2,3.81553 6.5,8.46613 l 6,8.45563 7.85699,0.0169 c 6.03821,0.013 7.74159,-0.28379 7.35847,-1.28218 -0.27419,-0.71452 -4.59733,-6.96436 -9.60699,-13.88854 C 566.09881,363.88816 562,357.74529 562,357.16151 c 0,-0.58378 3.81003,-6.32613 8.46674,-12.76078 4.6567,-6.43465 8.23014,-12.08217 7.94098,-12.55004 C 578.11855,331.38281 574.75155,331 570.92548,331 H 563.969 l -5.10737,7 c -2.80905,3.85 -5.40123,7 -5.76039,7 -0.35917,0 -3.01031,-3.15 -5.89144,-7 l -5.23841,-7 h -6.92668 c -3.80967,0 -7.18926,0.42487 -7.5102,0.94416 -0.32094,0.51929 3.47221,6.44626 8.42921,13.17104 l 9.01274,12.22688 -2.32965,3.07896 C 536.95233,367.94712 525,384.87095 525,385.40795 c 0,0.32563 3.4875,0.57971 7.75,0.56462 l 7.75,-0.0274 z M 610,356 v -30 h 6.5 6.5 v -7.02071 -7.0207 l -20.25,0.2707 -20.25,0.27071 -0.29569,6.75 -0.29569,6.75 H 588.45431 595 v 30 30 h 7.5 7.5 z M 300.10951,321.37712 c 20.16856,-20.14258 37.28219,-37.03359 38.03029,-37.53558 1.02328,-0.68663 -2.97396,-5.09468 -16.13754,-17.79605 -9.62375,-9.28584 -17.58079,-16.80733 -17.68231,-16.71442 -0.10152,0.0929 -9.46037,9.36905 -20.79746,20.61365 l -20.61288,20.44472 -18.7048,-18.44355 c -10.28765,-10.14395 -28.94333,-28.56643 -41.45708,-40.93883 l -22.75226,-22.49528 -17.03868,17.03868 -17.03868,17.03867 35.79095,35.51282 c 53.37895,52.96416 80.73502,79.85462 81.26065,79.87755 0.25834,0.0113 16.97125,-16.4598 37.1398,-36.60238 z"
       id="path8" /><path
       style="fill:#a0a0a0"
       d="m 357,499.5 c 6.30706,-6.325 11.69238,-11.5 11.96738,-11.5 0.275,0 -4.66032,5.175 -10.96738,11.5 -6.30706,6.325 -11.69238,11.5 -11.96738,11.5 -0.275,0 4.66032,-5.175 10.96738,-11.5 z M 324.98986,491.25 306.5,472.5 325.25,490.98986 C 342.67066,508.16882 344.45171,510 343.73986,510 c -0.14307,0 -8.58057,-8.4375 -18.75,-18.75 z m 36.99942,-31 L 344.5,442.5 362.25,459.98928 C 378.74103,476.23809 380.45193,478 379.73928,478 c -0.14339,0 -8.13089,-7.9875 -17.75,-17.75 z M 136,467.5 c -4.09747,-4.125 -7.22494,-7.5 -6.94994,-7.5 0.275,0 3.85247,3.375 7.94994,7.5 4.09747,4.125 7.22494,7.5 6.94994,7.5 -0.275,0 -3.85247,-3.375 -7.94994,-7.5 z m 79.46241,-1.75 -4.96241,-5.25 5.2622,4.97443 5.2622,4.97442 14.2378,-13.97442 L 249.5,442.5 235.5134,456.75 c -7.69263,7.8375 -14.23455,14.25 -14.53759,14.25 -0.30305,0 -2.78408,-2.3625 -5.5134,-5.25 z M 185,434.5 c 11.81541,-11.825 21.70756,-21.5 21.98256,-21.5 0.275,0 -9.16715,9.675 -20.98256,21.5 -11.81541,11.825 -21.70756,21.5 -21.98256,21.5 -0.275,0 9.16715,-9.675 20.98256,-21.5 z m -61,-7 c 7.96077,-7.975 14.69913,-14.5 14.97413,-14.5 0.275,0 -6.01336,6.525 -13.97413,14.5 -7.96077,7.975 -14.69913,14.5 -14.97413,14.5 -0.275,0 6.01336,-6.525 13.97413,-14.5 z m 74.5,-2.5 c 6.58281,-6.6 12.19374,-12 12.46874,-12 0.275,0 -4.88593,5.4 -11.46874,12 -6.58281,6.6 -12.19374,12 -12.46874,12 -0.275,0 4.88593,-5.4 11.46874,-12 z m 66.93709,7.75 -2.93709,-3.25 3.25,2.93709 c 1.7875,1.6154 3.25,3.0779 3.25,3.25 0,0.77256 -0.82513,0.0924 -3.56291,-2.93709 z m 100.31201,-22.74881 8.2491,-8.48424 -19.23948,-19.25847 C 344.177,371.66631 335.74423,363 336.01923,363 c 0.275,0 9.16104,8.66959 19.74675,19.26575 l 19.24674,19.26575 -8.75636,8.47696 -8.75636,8.47696 z M 294.48958,389.75 276.5,371.5 294.75,389.48958 C 311.70584,406.20347 313.45182,408 312.73958,408 c -0.14323,0 -8.35573,-8.2125 -18.25,-18.25 z m 424.27833,16.52527 c 1.79735,-0.22256 4.49735,-0.21797 6,0.0102 1.50265,0.22818 0.0321,0.41027 -3.26791,0.40466 -3.3,-0.006 -4.52944,-0.1923 -2.73209,-0.41486 z M 284.49013,383.75 265.5,364.5 l 19.25,18.99013 c 10.5875,10.44457 19.25,19.10707 19.25,19.25 0,0.71148 -1.86585,-1.10466 -19.50987,-18.99013 z M 742.5,399 c 0.99549,-1.1 2.03498,-2 2.30998,-2 0.275,0 -0.31449,0.9 -1.30998,2 -0.99549,1.1 -2.03498,2 -2.30998,2 -0.275,0 0.31449,-0.9 1.30998,-2 z m -10,-9 c 0.99549,-1.1 2.03498,-2 2.30998,-2 0.275,0 -0.31449,0.9 -1.30998,2 -0.99549,1.1 -2.03498,2 -2.30998,2 -0.275,0 0.31449,-0.9 1.30998,-2 z m -244.6875,-3.68311 c 0.72187,-0.28887 1.58438,-0.25335 1.91667,0.0789 0.33229,0.33229 -0.25834,0.56864 -1.3125,0.52522 -1.16495,-0.048 -1.4019,-0.28494 -0.60417,-0.60416 z m 9,0 c 0.72187,-0.28887 1.58438,-0.25335 1.91667,0.0789 0.33229,0.33229 -0.25834,0.56864 -1.3125,0.52522 -1.16495,-0.048 -1.4019,-0.28494 -0.60417,-0.60416 z m 155,0 c 0.72187,-0.28887 1.58438,-0.25335 1.91667,0.0789 0.33229,0.33229 -0.25834,0.56864 -1.3125,0.52522 -1.16495,-0.048 -1.4019,-0.28494 -0.60417,-0.60416 z m 8.9375,0.0208 c 0.6875,-0.27741 1.8125,-0.27741 2.5,0 0.6875,0.27741 0.125,0.50439 -1.25,0.50439 -1.375,0 -1.9375,-0.22698 -1.25,-0.50439 z m 132.0625,-0.0208 c 0.72187,-0.28887 1.58438,-0.25335 1.91667,0.0789 0.33229,0.33229 -0.25834,0.56864 -1.3125,0.52522 -1.16495,-0.048 -1.4019,-0.28494 -0.60417,-0.60416 z M 457.33621,379 c 0,-4.125 0.17651,-5.8125 0.39226,-3.75 0.21574,2.0625 0.21574,5.4375 0,7.5 -0.21575,2.0625 -0.39226,0.375 -0.39226,-3.75 z m 138.10767,-23 c 0,-16.775 0.13684,-23.6375 0.3041,-15.25 0.16726,8.3875 0.16726,22.1125 0,30.5 -0.16726,8.3875 -0.3041,1.525 -0.3041,-15.25 z m 119.36862,29.31689 c 0.72187,-0.28887 1.58438,-0.25335 1.91667,0.0789 0.33229,0.33229 -0.25834,0.56864 -1.3125,0.52522 -1.16495,-0.048 -1.4019,-0.28494 -0.60417,-0.60416 z m 8,0 c 0.72187,-0.28887 1.58438,-0.25335 1.91667,0.0789 0.33229,0.33229 -0.25834,0.56864 -1.3125,0.52522 -1.16495,-0.048 -1.4019,-0.28494 -0.60417,-0.60416 z M 247.99131,372.74875 260.47249,359.99749 245.49045,344.74875 230.50842,329.5 245.99971,344.7496 261.491,359.9992 248.50056,372.7496 235.51013,385.5 Z M 749.23204,358.29569 749,332.09138 l -6.75,-0.34983 -6.75,-0.34983 6.78138,-0.19586 c 4.70288,-0.13583 6.93043,0.19254 7.26767,1.07135 0.26745,0.69697 0.35774,12.73447 0.20065,26.75 L 749.46408,384.5 Z M 733,381.62244 c 0,-0.20765 0.7875,-0.99515 1.75,-1.75 1.58606,-1.24387 1.62143,-1.2085 0.37756,0.37756 C 733.82119,381.91575 733,382.44548 733,381.62244 Z M 181.9893,370.74888 192.4665,359.99776 180.48853,347.74888 168.51056,335.5 l 12.48926,12.24964 12.48926,12.24965 -10.98849,10.75035 L 171.5121,381.5 Z M 471.40499,378.75 469.5,376.5 l 2.25,1.90499 c 1.2375,1.04774 2.25,2.06024 2.25,2.25 0,0.80025 -0.80479,0.20945 -2.59501,-1.90499 z M 809,378.5 c 1.29175,-1.375 2.57363,-2.5 2.84863,-2.5 0.275,0 -0.55688,1.125 -1.84863,2.5 -1.29175,1.375 -2.57363,2.5 -2.84863,2.5 -0.275,0 0.55688,-1.125 1.84863,-2.5 z m -128.66667,-2.95601 c 0,-0.80081 0.38234,-1.21971 0.84965,-0.9309 0.4673,0.28881 0.59075,0.94401 0.27431,1.45601 -0.80862,1.30838 -1.12396,1.16106 -1.12396,-0.52511 z M 257,367.5 c 2.98742,-3.025 5.65668,-5.5 5.93168,-5.5 0.275,0 -1.94426,2.475 -4.93168,5.5 -2.98742,3.025 -5.65668,5.5 -5.93168,5.5 -0.275,0 1.94426,-2.475 4.93168,-5.5 z m 179.99901,-25.20112 c -0.27445,-16.61062 -0.15458,-29.85619 0.26639,-29.4346 0.42097,0.42158 0.64552,14.01209 0.49901,30.20112 L 437.49803,372.5 Z M 778.40499,369.75 776.5,367.5 l 2.25,1.90499 c 2.11444,1.79022 2.70524,2.59501 1.90499,2.59501 -0.18976,0 -1.20226,-1.0125 -2.25,-2.25 z m 38.67396,-7.33333 c 0.048,-1.16495 0.28494,-1.4019 0.60416,-0.60417 0.28887,0.72187 0.25335,1.58438 -0.0789,1.91667 -0.33229,0.33229 -0.56864,-0.25834 -0.52522,-1.3125 z M 628.27236,359 c 0,-2.475 0.19502,-3.4875 0.43337,-2.25 0.23836,1.2375 0.23836,3.2625 0,4.5 -0.23835,1.2375 -0.43337,0.225 -0.43337,-2.25 z m 56.80659,1.41667 c 0.048,-1.16495 0.28494,-1.4019 0.60416,-0.60417 0.28887,0.72187 0.25335,1.58438 -0.0789,1.91667 -0.33229,0.33229 -0.56864,-0.25834 -0.52522,-1.3125 z M 707.232,358 c 0,-1.925 0.2058,-2.7125 0.45733,-1.75 0.25152,0.9625 0.25152,2.5375 0,3.5 -0.25153,0.9625 -0.45733,0.175 -0.45733,-1.75 z m 29,0 c 0,-1.925 0.2058,-2.7125 0.45733,-1.75 0.25152,0.9625 0.25152,2.5375 0,3.5 -0.25153,0.9625 -0.45733,0.175 -0.45733,-1.75 z m -43.15305,0.41667 c 0.048,-1.16495 0.28494,-1.4019 0.60416,-0.60417 0.28887,0.72187 0.25335,1.58438 -0.0789,1.91667 -0.33229,0.33229 -0.56864,-0.25834 -0.52522,-1.3125 z M 260.87244,356.25 c -1.23617,-1.57624 -1.20303,-1.61734 0.33376,-0.41391 0.9384,0.73485 2.24543,1.00282 2.9045,0.59549 0.75808,-0.46851 0.93618,-0.31645 0.48479,0.41391 -1.00085,1.61941 -2.1273,1.43924 -3.72305,-0.59549 z M 520.15789,356 c 0,-1.375 0.22698,-1.9375 0.50439,-1.25 0.27741,0.6875 0.27741,1.8125 0,2.5 -0.27741,0.6875 -0.50439,0.125 -0.50439,-1.25 z m 296.92106,-0.58333 c 0.048,-1.16495 0.28494,-1.4019 0.60416,-0.60417 0.28887,0.72187 0.25335,1.58438 -0.0789,1.91667 -0.33229,0.33229 -0.56864,-0.25834 -0.52522,-1.3125 z M 282,338.5 c 9.0625,-9.075 16.70227,-16.5 16.97727,-16.5 0.275,0 -6.91477,7.425 -15.97727,16.5 -9.0625,9.075 -16.70227,16.5 -16.97727,16.5 -0.275,0 6.91477,-7.425 15.97727,-16.5 z m 76.5,-4.5 c 10.98969,-11 20.20625,-20 20.48125,-20 0.275,0 -8.49156,9 -19.48125,20 -10.98969,11 -20.20625,20 -20.48125,20 -0.275,0 8.49156,-9 19.48125,-20 z m 353,13 c 0.99549,-1.1 2.03498,-2 2.30998,-2 0.275,0 -0.31449,0.9 -1.30998,2 -0.99549,1.1 -2.03498,2 -2.30998,2 -0.275,0 0.31449,-0.9 1.30998,-2 z m 19.90499,-0.25 -1.90499,-2.25 2.25,1.90499 c 2.11444,1.79022 2.70524,2.59501 1.90499,2.59501 -0.18976,0 -1.20226,-1.0125 -2.25,-2.25 z M 295.5,329 c 9.33787,-9.35 17.20294,-17 17.47794,-17 0.275,0 -7.14007,7.65 -16.47794,17 -9.33787,9.35 -17.20294,17 -17.47794,17 -0.275,0 7.14007,-7.65 16.47794,-17 z M 552,345.60699 c 0,-0.21616 0.69837,-0.661 1.55194,-0.98855 0.88992,-0.34149 1.29132,-0.17385 0.94098,0.39301 C 553.90566,345.96166 552,346.4169 552,345.60699 Z M 768.5,339 c 0.99549,-1.1 2.03498,-2 2.30998,-2 0.275,0 -0.31449,0.9 -1.30998,2 -0.99549,1.1 -2.03498,2 -2.30998,2 -0.275,0 0.31449,-0.9 1.30998,-2 z m -256.62756,-0.75 c -1.24387,-1.58606 -1.2085,-1.62143 0.37756,-0.37756 0.9625,0.75485 1.75,1.54235 1.75,1.75 0,0.82304 -0.82119,0.29331 -2.12756,-1.37244 z M 531.25,331.27153 c 2.0625,-0.21574 5.4375,-0.21574 7.5,0 2.0625,0.21575 0.375,0.39226 -3.75,0.39226 -4.125,0 -5.8125,-0.17651 -3.75,-0.39226 z m 36,0 c 2.0625,-0.21574 5.4375,-0.21574 7.5,0 2.0625,0.21575 0.375,0.39226 -3.75,0.39226 -4.125,0 -5.8125,-0.17651 -3.75,-0.39226 z m -76.5,-0.93381 c 0.6875,-0.27741 1.8125,-0.27741 2.5,0 0.6875,0.27741 0.125,0.50439 -1.25,0.50439 -1.375,0 -1.9375,-0.22698 -1.25,-0.50439 z m 165.0625,-0.0208 c 0.72187,-0.28887 1.58438,-0.25335 1.91667,0.0789 0.33229,0.33229 -0.25834,0.56864 -1.3125,0.52522 -1.16495,-0.048 -1.4019,-0.28494 -0.60417,-0.60416 z m 62,0 c 0.72187,-0.28887 1.58438,-0.25335 1.91667,0.0789 0.33229,0.33229 -0.25834,0.56864 -1.3125,0.52522 -1.16495,-0.048 -1.4019,-0.28494 -0.60417,-0.60416 z m 69.9375,0.0208 c 0.6875,-0.27741 1.8125,-0.27741 2.5,0 0.6875,0.27741 0.125,0.50439 -1.25,0.50439 -1.375,0 -1.9375,-0.22698 -1.25,-0.50439 z m -205.61382,-10.5287 c -0.0749,-3.68004 0.20132,-6.90023 0.61382,-7.15596 0.4125,-0.25574 0.62006,1.8552 0.46124,4.69098 -0.47739,8.52403 -0.93059,9.56315 -1.07506,2.46498 z M 201.98863,298.25 185.5,281.5 l 16.75,16.48863 c 9.2125,9.06875 16.75,16.60625 16.75,16.75 0,0.71354 -1.69275,-0.92719 -17.01137,-16.48863 z m -31.23934,0.75059 14.24928,-14.49039 10.75072,10.98885 L 206.5,306.4879 195.74776,296.00959 184.99552,285.53127 170.74776,299.51112 156.5,313.49097 Z M 256.40499,284.75 254.5,282.5 l 2.25,1.90499 c 2.11444,1.79022 2.70524,2.59501 1.90499,2.59501 -0.18976,0 -1.20226,-1.0125 -2.25,-2.25 z M 329.0248,273.50522 319.54961,263.5 l 9.93032,9.71154 c 5.46168,5.34134 9.72552,9.8437 9.4752,10.00522 -0.25032,0.16153 -4.71897,-4.20866 -9.93033,-9.71154 z M 239.4866,267.75 225.5,253.5 239.75,267.4866 C 252.9876,280.47952 254.45289,282 253.7366,282 c -0.14487,0 -6.55737,-6.4125 -14.25,-14.25 z M 402.5,266 c -6.58281,-6.6 -11.74374,-12 -11.46874,-12 0.275,0 5.88593,5.4 12.46874,12 6.58281,6.6 11.74374,12 11.46874,12 -0.275,0 -5.88593,-5.4 -12.46874,-12 z m -35.51389,-7.25 C 379.51383,245.97714 381,244.54694 381,245.26389 c 0,0.14515 -6.1875,6.33265 -13.75,13.75 L 353.5,272.5 Z M 302,251.62244 c 0,-0.20765 0.7875,-0.99515 1.75,-1.75 1.58606,-1.24387 1.62143,-1.2085 0.37756,0.37756 C 302.82119,251.91575 302,252.44548 302,251.62244 Z M 146.87244,244.25 c -1.24387,-1.58606 -1.2085,-1.62143 0.37756,-0.37756 0.9625,0.75485 1.75,1.54235 1.75,1.75 0,0.82304 -0.82119,0.29331 -2.12756,-1.37244 z"
       id="path7" /><path
       style="fill:#3ca73a"
       d="m 127.5,458.38336 -17,-16.48913 41.5,-41.05883 41.5,-41.05883 -20.76137,-20.13828 c -11.41875,-11.07606 -20.75625,-20.46687 -20.75,-20.86847 0.0117,-0.7517 31.6704,-32.08045 32.85169,-32.50931 0.36283,-0.13172 12.84715,11.79328 27.74295,26.5 14.8958,14.70672 23.3333,23.14942 18.75,18.76157 L 223,323.54416 223,360 v 36.45584 l 8.75,-8.45557 c 4.8125,-4.65056 1.1,-0.82756 -8.25,8.49556 -9.35,9.32313 -30.95,30.77188 -48,47.6639 l -31,30.71276 z M 317.49148,411.77797 C 305.39616,399.55585 296.9625,390.86504 298.75,392.46506 l 3.25,2.90912 V 360 324.62582 l -3.25,2.82482 c -1.7875,1.55366 16.1,-16.35664 39.75,-39.80065 l 43,-42.62549 16.78087,16.73775 16.78087,16.73775 -41.28087,40.66963 -41.28087,40.66963 20.75132,20.84042 20.75132,20.84041 -16.26236,16.23996 C 348.79599,426.69202 341.02906,434 340.48044,434 c -0.54862,0 -10.89365,-9.99991 -22.98896,-22.22203 z m -48.00517,-46.79187 -4.93851,-5.0139 6.46533,-6.2361 6.46534,-6.2361 -5.95478,6.24682 -5.95478,6.24681 4.92795,5.00319 c 2.71038,2.75175 4.70296,5.00318 4.42796,5.00318 -0.275,0 -2.72233,-2.25626 -5.43851,-5.0139 z"
       id="path6" /><path
       style="fill:#5d5d5d"
       d="m 374.5,482 c 2.14824,-2.2 4.1309,-4 4.4059,-4 0.275,0 -1.25766,1.8 -3.4059,4 -2.14824,2.2 -4.1309,4 -4.4059,4 -0.275,0 1.25766,-1.8 3.4059,-4 z m -83,-24 c -8.23625,-8.25 -14.74999,-15 -14.47499,-15 0.275,0 7.23874,6.75 15.47499,15 8.23625,8.25 14.74999,15 14.47499,15 -0.275,0 -7.23874,-6.75 -15.47499,-15 z M 197.48295,447.75 186.5,436.5 l 11.25,10.98295 c 6.1875,6.04062 11.25,11.10312 11.25,11.25 0,0.72114 -1.31566,-0.53351 -11.51705,-10.98295 z M 256.5,435 c 3.26557,-3.3 6.16239,-6 6.43739,-6 0.275,0 -2.17182,2.7 -5.43739,6 -3.26557,3.3 -6.16239,6 -6.43739,6 -0.275,0 2.17182,-2.7 5.43739,-6 z M 321.98863,421.25 305.5,404.5 l 16.75,16.48863 c 9.2125,9.06875 16.75,16.60625 16.75,16.75 0,0.71354 -1.69275,-0.92719 -17.01137,-16.48863 z M 239,385.5 c 6.85849,-6.875 12.69499,-12.5 12.96999,-12.5 0.275,0 -5.1115,5.625 -11.96999,12.5 -6.85849,6.875 -12.69499,12.5 -12.96999,12.5 -0.275,0 5.1115,-5.625 11.96999,-12.5 z m 480.75,8.83772 c 0.6875,-0.27741 1.8125,-0.27741 2.5,0 0.6875,0.27741 0.125,0.50439 -1.25,0.50439 -1.375,0 -1.9375,-0.22698 -1.25,-0.50439 z m -228.5,-8.02705 c 0.9625,-0.25152 2.5375,-0.25152 3.5,0 0.9625,0.25153 0.175,0.45733 -1.75,0.45733 -1.925,0 -2.7125,-0.2058 -1.75,-0.45733 z m 164,0 c 0.9625,-0.25152 2.5375,-0.25152 3.5,0 0.9625,0.25153 0.175,0.45733 -1.75,0.45733 -1.925,0 -2.7125,-0.2058 -1.75,-0.45733 z m 132,0 c 0.9625,-0.25152 2.5375,-0.25152 3.5,0 0.9625,0.25153 0.175,0.45733 -1.75,0.45733 -1.925,0 -2.7125,-0.2058 -1.75,-0.45733 z m -363.79445,-1.56591 c -0.26492,-0.69038 -0.3633,-17.22788 -0.21861,-36.75 L 423.5,312.5 l 6,-0.0714 6,-0.0714 -5.75,0.3691 -5.75,0.36909 v 35.92811 35.9281 l 16.75,0.30006 16.75,0.30005 -16.78138,0.22413 c -12.70855,0.16973 -16.89829,-0.0805 -17.26307,-1.03112 z m 105.32088,0.52174 c 2.35204,-0.21124 5.95204,-0.20827 8,0.007 2.04796,0.21487 0.12357,0.38771 -4.27643,0.38408 -4.4,-0.004 -6.07561,-0.17944 -3.72357,-0.39069 z M 568,385.38589 c 5.98161,-0.75236 13.00119,-0.82573 13.00062,-0.13589 -3.4e-4,0.4125 -3.48812,0.68258 -7.75062,0.60017 -4.2625,-0.0824 -6.625,-0.29133 -5.25,-0.46428 z m 34.73519,-0.11286 6.23519,-0.36373 0.26481,-29.70465 L 609.5,325.5 l 7,-0.0798 7,-0.0798 -6.73519,0.37514 -6.73519,0.37513 -0.26481,29.70465 L 609.5,385.5 l -6.5,0.0684 -6.5,0.0684 z m 115.53384,0.034 c 0.97297,-0.25354 2.32297,-0.23687 3,0.0371 0.67703,0.27393 -0.11903,0.48137 -1.76903,0.46099 -1.65,-0.0204 -2.20394,-0.2445 -1.23097,-0.49804 z M 768.92431,378.25 766.5,375.5 l 2.75,2.42431 c 1.5125,1.33338 2.75,2.57088 2.75,2.75 0,0.78428 -0.8098,0.14598 -3.07569,-2.42431 z m -133.05187,0 c -1.24387,-1.58606 -1.2085,-1.62143 0.37756,-0.37756 1.66575,1.30637 2.19548,2.12756 1.37244,2.12756 -0.20765,0 -0.99515,-0.7875 -1.75,-1.75 z M 677,379.62244 c 0,-0.20765 0.7875,-0.99515 1.75,-1.75 1.58606,-1.24387 1.62143,-1.2085 0.37756,0.37756 C 677.82119,379.91575 677,380.44548 677,379.62244 Z m 110.25,-5.31177 c 0.9625,-0.25152 2.5375,-0.25152 3.5,0 0.9625,0.25153 0.175,0.45733 -1.75,0.45733 -1.925,0 -2.7125,-0.2058 -1.75,-0.45733 z m -67,-1 c 0.9625,-0.25152 2.5375,-0.25152 3.5,0 0.9625,0.25153 0.175,0.45733 -1.75,0.45733 -1.925,0 -2.7125,-0.2058 -1.75,-0.45733 z m -278.5,-1.04791 c 2.8875,-0.202 7.6125,-0.202 10.5,0 2.8875,0.202 0.525,0.36728 -5.25,0.36728 -5.775,0 -8.1375,-0.16528 -5.25,-0.36728 z M 798,371.62244 c 0,-0.20765 0.7875,-0.99515 1.75,-1.75 1.58606,-1.24387 1.62143,-1.2085 0.37756,0.37756 C 798.82119,371.91575 798,372.44548 798,371.62244 Z m -67,-1 c 0,-0.20765 0.7875,-0.99515 1.75,-1.75 1.58606,-1.24387 1.62143,-1.2085 0.37756,0.37756 C 731.82119,370.91575 731,371.44548 731,370.62244 Z M 520.15789,360 c 0,-1.375 0.22698,-1.9375 0.50439,-1.25 0.27741,0.6875 0.27741,1.8125 0,2.5 -0.27741,0.6875 -0.50439,0.125 -0.50439,-1.25 z m 254.09429,-1.5 c 0.0111,-2.2 0.21589,-2.98225 0.45508,-1.73834 0.23919,1.24391 0.23011,3.04391 -0.0202,4 -0.25029,0.95609 -0.446,-0.0617 -0.4349,-2.26166 z m 42.90571,0.5 c 0,-1.375 0.22698,-1.9375 0.50439,-1.25 0.27741,0.6875 0.27741,1.8125 0,2.5 -0.27741,0.6875 -0.50439,0.125 -0.50439,-1.25 z M 243.9879,339.25 228.5,323.5 244.25,338.9879 C 258.88187,353.37628 260.45244,355 259.7379,355 c -0.14415,0 -7.23165,-7.0875 -15.75,-15.75 z m 259.41709,7.5 -1.90499,-2.25 2.25,1.90499 c 2.11444,1.79022 2.70524,2.59501 1.90499,2.59501 -0.18976,0 -1.20226,-1.0125 -2.25,-2.25 z M 778.5,347 c 0.99549,-1.1 2.03498,-2 2.30998,-2 0.275,0 -0.31449,0.9 -1.30998,2 -0.99549,1.1 -2.03498,2 -2.30998,2 -0.275,0 0.31449,-0.9 1.30998,-2 z m -288.6875,-4.68311 c 0.72187,-0.28887 1.58438,-0.25335 1.91667,0.0789 0.33229,0.33229 -0.25834,0.56864 -1.3125,0.52522 -1.16495,-0.048 -1.4019,-0.28494 -0.60417,-0.60416 z m 4,0 c 0.72187,-0.28887 1.58438,-0.25335 1.91667,0.0789 0.33229,0.33229 -0.25834,0.56864 -1.3125,0.52522 -1.16495,-0.048 -1.4019,-0.28494 -0.60417,-0.60416 z m 165,0 c 0.72187,-0.28887 1.58438,-0.25335 1.91667,0.0789 0.33229,0.33229 -0.25834,0.56864 -1.3125,0.52522 -1.16495,-0.048 -1.4019,-0.28494 -0.60417,-0.60416 z M 808.92431,339.25 806.5,336.5 l 2.75,2.42431 c 1.5125,1.33338 2.75,2.57088 2.75,2.75 0,0.78428 -0.8098,0.14598 -3.07569,-2.42431 z M 471.5,339 c 0.99549,-1.1 2.03498,-2 2.30998,-2 0.275,0 -0.31449,0.9 -1.30998,2 -0.99549,1.1 -2.03498,2 -2.30998,2 -0.275,0 0.31449,-0.9 1.30998,-2 z m 204.90499,-0.25 -1.90499,-2.25 2.25,1.90499 c 1.2375,1.04774 2.25,2.06024 2.25,2.25 0,0.80025 -0.80479,0.20945 -2.59501,-1.90499 z M 585.75,325.2766 c 1.7875,-0.22182 4.7125,-0.22182 6.5,0 1.7875,0.22183 0.325,0.40333 -3.25,0.40333 -3.575,0 -5.0375,-0.1815 -3.25,-0.40333 z M 321,299.5 c 8.51169,-8.525 15.7008,-15.5 15.9758,-15.5 0.275,0 -6.46411,6.975 -14.9758,15.5 -8.51169,8.525 -15.7008,15.5 -15.9758,15.5 -0.275,0 6.46411,-6.975 14.9758,-15.5 z m 272.25,12.7545 c 5.3625,-0.17981 14.1375,-0.17981 19.5,0 5.3625,0.17981 0.975,0.32692 -9.75,0.32692 -10.725,0 -15.1125,-0.14711 -9.75,-0.32692 z M 286.5,267 c 8.23625,-8.25 15.19999,-15 15.47499,-15 0.275,0 -6.23874,6.75 -14.47499,15 -8.23625,8.25 -15.19999,15 -15.47499,15 -0.275,0 6.23874,-6.75 14.47499,-15 z M 171.98369,268.25 160.5,256.5 l 11.75,11.48369 c 6.4625,6.31603 11.75,11.60353 11.75,11.75 0,0.72017 -1.34959,-0.5696 -12.01631,-11.48369 z m 138.48501,-12.5 -5.9687,-6.25 6.25,5.9687 c 3.4375,3.28278 6.25,6.09528 6.25,6.25 0,0.7389 -0.98689,-0.16298 -6.5313,-5.9687 z M 197.48828,226.75 181.5,210.5 197.75,226.48828 C 212.84665,241.34178 214.4523,243 213.73828,243 c -0.14395,0 -7.45645,-7.3125 -16.25,-16.25 z M 165.5,223 c 7.68526,-7.7 14.19821,-14 14.47321,-14 0.275,0 -5.78795,6.3 -13.47321,14 -7.68526,7.7 -14.19821,14 -14.47321,14 -0.275,0 5.78795,-6.3 13.47321,-14 z"
       id="path5" /><path
       style="fill:#329738"
       d="M 223,360.06457 V 323.7672 l 16.75,16.0021 c 9.2125,8.80115 17.6341,16.98321 18.71466,18.18234 l 1.96466,2.18023 -9.46466,9.20239 c -5.20556,5.06131 -13.62716,13.21308 -18.71466,18.11503 l -9.25,8.91264 z m 60.5,17.68191 -18,-17.74648 18,-17.74648 18,-17.74649 0.27307,17.74649 c 0.1502,9.76056 0.1502,25.7324 0,35.49296 L 301.5,395.49297 Z"
       id="path4" /><path
       style="fill:#242422"
       d="m 313.5,479 -30.9879,-31 h 32.95636 32.95636 l -4.94822,-5.25 c -2.72152,-2.8875 4.15752,3.74541 15.28676,14.73979 l 20.23498,19.9898 -16.2378,16.2602 C 353.82974,502.68291 346.0649,510 345.50532,510 344.94574,510 330.54335,496.05 313.5,479 Z M 207.48557,456.78199 c -7.14206,-7.2699 -11.83157,-12.2199 -10.42112,-11 2.4762,2.14168 3.30086,2.21801 23.96215,2.21801 h 21.3977 l 4.53785,-4.23528 c 2.49582,-2.3294 -2.20652,2.6206 -10.44965,11 C 228.26938,463.14413 221.28789,470 220.99808,470 c -0.28982,0 -6.37044,-5.9481 -13.51251,-13.21801 z M 267,433.5 c -2.42903,-2.475 -4.19142,-4.5 -3.91642,-4.5 0.275,0 2.48739,2.025 4.91642,4.5 2.42903,2.475 4.19142,4.5 3.91642,4.5 -0.275,0 -2.48739,-2.025 -4.91642,-4.5 z m -76.5,0.5 c 0.99549,-1.1 2.03498,-2 2.30998,-2 0.275,0 -0.31449,0.9 -1.30998,2 -0.99549,1.1 -2.03498,2 -2.30998,2 -0.275,0 0.31449,-0.9 1.30998,-2 z m 17,-17 c 7.68526,-7.7 14.19821,-14 14.47321,-14 0.275,0 -5.78795,6.3 -13.47321,14 -7.68526,7.7 -14.19821,14 -14.47321,14 -0.275,0 5.78795,-6.3 13.47321,-14 z m 516.3125,-22.68311 c 0.72187,-0.28887 1.58438,-0.25335 1.91667,0.0789 0.33229,0.33229 -0.25834,0.56864 -1.3125,0.52522 -1.16495,-0.048 -1.4019,-0.28494 -0.60417,-0.60416 z m -26.0848,-5.03862 c 1.77523,-0.22091 4.92523,-0.22454 7,-0.008 2.07476,0.21648 0.6223,0.39722 -3.2277,0.40166 -3.85,0.004 -5.54754,-0.17268 -3.7723,-0.39359 z M 275.48557,375.75 262.5,362.5 l 13.25,12.98557 c 7.2875,7.14207 13.25,13.10457 13.25,13.25 0,0.71767 -1.45192,-0.67743 -13.51443,-12.98557 z m 366.38304,-13.02041 c 0.42471,-0.42373 10.41553,-0.64795 22.2018,-0.49827 l 21.42959,0.27213 -22.20181,0.49828 c -12.21099,0.27405 -21.8543,0.15159 -21.42958,-0.27214 z M 464.27236,359 c 0,-2.475 0.19502,-3.4875 0.43337,-2.25 0.23836,1.2375 0.23836,3.2625 0,4.5 -0.23835,1.2375 -0.43337,0.225 -0.43337,-2.25 z m 22.92222,3.25435 c 5.88201,-0.17649 15.78201,-0.17711 22,-0.001 6.21798,0.17574 1.40542,0.32014 -10.69458,0.32089 -12.1,7.6e-4 -17.18744,-0.14302 -11.30542,-0.31951 z M 761.232,359 c 0,-1.925 0.2058,-2.7125 0.45733,-1.75 0.25152,0.9625 0.25152,2.5375 0,3.5 -0.25153,0.9625 -0.45733,0.175 -0.45733,-1.75 z M 259.70232,354.21117 257,351.39056 V 318.95443 286.5183 L 237.25043,266.50915 217.50087,246.5 l 22.62804,22.37023 22.62804,22.37023 20.8603,-20.50928 20.86029,-20.50928 12.51123,11.80546 c 6.88118,6.493 14.42235,13.7712 16.75816,16.17377 l 4.24694,4.36833 -37.01209,36.96527 c -20.35665,20.3309 -37.36422,37.08492 -37.79461,37.23116 -0.4304,0.14625 -1.99858,-1.00338 -3.48485,-2.55472 z M 484.75,352.25749 c 3.9875,-0.18981 10.5125,-0.18981 14.5,0 3.9875,0.18982 0.725,0.34512 -7.25,0.34512 -7.975,0 -11.2375,-0.1553 -7.25,-0.34512 z m 165,0 c 3.9875,-0.18981 10.5125,-0.18981 14.5,0 3.9875,0.18982 0.725,0.34512 -7.25,0.34512 -7.975,0 -11.2375,-0.1553 -7.25,-0.34512 z M 700,339.62244 c 0,-0.20765 0.7875,-0.99515 1.75,-1.75 1.58606,-1.24387 1.62143,-1.2085 0.37756,0.37756 C 700.82119,339.91575 700,340.44548 700,339.62244 Z M 622.32007,319 c 0,-3.575 0.1815,-5.0375 0.40333,-3.25 0.22182,1.7875 0.22182,4.7125 0,6.5 -0.22183,1.7875 -0.40333,0.325 -0.40333,-3.25 z M 212.4866,307.75 198.5,293.5 212.75,307.4866 C 225.9876,320.47952 227.45289,322 226.7366,322 c -0.14487,0 -6.55737,-6.4125 -14.25,-14.25 z m -60.0179,-59 -5.9687,-6.25 6.25,5.9687 c 5.80572,5.54441 6.7076,6.5313 5.9687,6.5313 -0.15472,0 -2.96722,-2.8125 -6.25,-6.25 z"
       id="path3" /><path
       style="fill:#1a1b1a"
       d="m 193.66674,442.74819 -5.83325,-5.24819 37.13924,-37 c 20.42658,-20.35 37.24128,-37.08974 37.366,-37.19941 0.12472,-0.10968 19.56202,18.87981 43.19401,42.19887 l 42.96726,42.39828 -32.98211,0.0511 -32.98211,0.0511 -9.69505,-9.65868 -9.69506,-9.65867 -10.32283,9.63683 -10.32284,9.63684 -21.5,0.02 -21.5,0.02 z M 471.40499,377.75 469.5,375.5 l 2.25,1.90499 c 1.2375,1.04774 2.25,2.06024 2.25,2.25 0,0.80025 -0.80479,0.20945 -2.59501,-1.90499 z M 512,379.62244 c 0,-0.20765 0.7875,-0.99515 1.75,-1.75 1.58606,-1.24387 1.62143,-1.2085 0.37756,0.37756 C 512.82119,379.91575 512,380.44548 512,379.62244 Z M 247.8779,342.30492 c -4.74216,-4.84271 -29.41293,-29.24497 -54.82394,-54.22725 l -46.20185,-45.42232 16.57501,-16.575 16.575,-16.57501 38.5131,38.51311 38.5131,38.5131 -0.26416,32.28915 L 256.5,351.10984 Z M 511.40499,338.75 509.5,336.5 l 2.25,1.90499 c 1.2375,1.04774 2.25,2.06024 2.25,2.25 0,0.80025 -0.80479,0.20945 -2.59501,-1.90499 z M 768,340.62244 c 0,-0.20765 0.7875,-0.99515 1.75,-1.75 1.58606,-1.24387 1.62143,-1.2085 0.37756,0.37756 C 768.82119,340.91575 768,341.44548 768,340.62244 Z"
       id="path2" /><path
       style="fill:#000000"
       d="m 710.22179,404.58762 c -2.35302,-0.7663 -5.87883,-2.61413 -7.83514,-4.10628 -3.2553,-2.48293 -7.37384,-7.91155 -7.38291,-9.73134 -0.002,-0.4125 2.93948,-0.75 6.53675,-0.75 5.21097,0 7.15804,0.45657 9.57847,2.24607 2.44277,1.80602 4.3633,2.24684 9.80248,2.25 C 731.32423,394.50211 736,390.81416 736,382.60308 v -3.49625 l -5.60155,2.94659 c -9.26734,4.8749 -18.9854,3.70301 -26.87387,-3.2407 -6.39799,-5.63173 -8.89992,-11.4921 -8.8625,-20.75897 0.0347,-8.58695 1.53364,-12.92919 6.36127,-18.42756 7.89029,-8.98655 21.12057,-10.70817 31.22665,-4.06343 l 3.75,2.46562 V 335.01419 332 h 6.5 6.5 v 25.2899 c 0,34.24883 -1.38793,39.33424 -12.36807,45.31701 -4.27618,2.32997 -6.54931,2.84442 -13.63193,3.08512 -5.31836,0.18074 -10.10138,-0.23265 -12.77821,-1.10441 z m 20.6027,-33.26907 c 5.78345,-4.23834 7.89423,-13.89436 4.56905,-20.90166 C 733.10896,345.60251 728.40931,343 722,343 c -10.03431,0 -15.63555,6.32251 -14.77668,16.67944 0.51718,6.23646 2.85452,9.99692 7.84776,12.62594 4.30654,2.26745 11.96763,1.78755 15.75341,-0.98683 z m -246.83096,13.74711 c -8.07778,-2.45715 -15.90225,-10.09635 -17.99423,-17.56814 -1.93957,-6.92747 -0.85224,-17.36637 2.38412,-22.88881 4.78906,-8.17191 13.16803,-12.83985 23.11658,-12.8783 9.37592,-0.0362 13.9623,1.70305 19.99037,7.5809 C 517.06437,344.7464 520,351.42868 520,358.6815 V 362 h -21.5 c -23.66363,0 -23.17923,-0.14795 -19.95145,6.09388 3.54314,6.85169 14.76223,9.1454 23.6747,4.84023 l 4.27675,-2.06588 4.93774,2.19572 4.93774,2.19573 -4.07,3.79645 c -6.26792,5.84666 -19.56718,8.66957 -28.31195,6.00953 z M 507,351.18709 c 0,-2.25138 -4.55734,-6.70369 -8.3151,-8.12347 -3.85212,-1.45543 -9.10141,-1.33426 -13.01371,0.30041 -3.62273,1.51367 -9.00201,7.29167 -8.11886,8.72064 C 477.86347,352.5881 484.61648,353 492.55902,353 505.83657,353 507,352.85394 507,351.18709 Z m 139.64007,33.18094 c -3.28604,-1.00926 -6.41923,-3.05195 -9.67478,-6.30751 -10.20198,-10.20198 -10.56746,-27.02757 -0.81685,-37.60573 5.80632,-6.29912 11.56178,-8.79138 20.26157,-8.77379 15.72519,0.0318 26.04782,9.27136 28.00759,25.069 l 0.65129,5.25 H 663.03444 C 650.9155,362 641,362.23945 641,362.53212 c 0,1.84453 3.15787,7.35126 5.40343,9.42254 3.87891,3.57789 13.74134,4.12185 19.97959,1.10197 l 4.48265,-2.17001 5.22885,2.24939 5.22885,2.24939 -4.28937,3.80648 c -7.25775,6.44068 -19.49269,8.52432 -30.39393,5.17615 z M 672,351.96482 C 672,347.73506 663.68938,342 657.56007,342 650.60848,342 642,347.47951 642,351.90437 642,352.64985 646.79384,353 657,353 c 9.67321,0 15,-0.36761 15,-1.03518 z m 107.38535,32.4785 c -10.66194,-3.938 -17.37447,-13.9731 -17.35362,-25.94332 0.0153,-8.76814 2.08871,-13.55129 8.37771,-19.32626 6.18935,-5.68347 10.60963,-7.43805 18.77984,-7.45444 29.00827,-0.0582 38.26727,38.24012 12.44517,51.47741 -5.36461,2.75009 -16.4907,3.37348 -22.2491,1.24661 z m 16.59472,-11.19487 C 801.40458,370.52308 804,365.82141 804,358.72015 c 0,-10.94719 -5.55195,-16.28227 -16.14664,-15.51592 -4.40584,0.31869 -6.47012,1.01549 -8.46854,2.85859 -5.66971,5.22903 -6.91469,13.52988 -3.13482,20.9013 3.80126,7.41313 12.17479,10.08023 19.73007,6.28433 z M 424,349 v -36 h 6.5 6.5 v 30 30 h 10 10 v 6 6 H 440.5 424 Z m 111.13758,23.25 c 5.01954,-7.0125 9.49769,-13.2228 9.95144,-13.80067 0.49562,-0.63119 -2.75108,-6.00246 -8.13201,-13.45339 C 532.03066,338.17443 528,332.45973 528,332.2966 528,332.13347 531.12585,332 534.94634,332 h 6.94634 l 5.30366,7.47607 c 2.91701,4.11184 5.52866,7.47948 5.80366,7.48366 0.275,0.004 2.90654,-3.36006 5.84786,-7.47607 L 564.19573,332 h 6.96115 c 5.30135,0 6.78273,0.29805 6.21286,1.25 -0.41157,0.6875 -4.49377,6.37209 -9.07157,12.63242 -5.36378,7.3352 -8.0109,11.7798 -7.44478,12.5 2.04706,2.60424 17.82553,24.22508 18.51275,25.36758 0.57298,0.95256 -0.91376,1.25 -6.24807,1.25 h -6.99996 l -6.17566,-8.5 c -3.39661,-4.675 -6.48969,-8.5 -6.87351,-8.5 -0.38382,0 -3.48703,3.825 -6.89602,8.5 l -6.19817,8.5 h -6.9818 -6.9818 z M 596,355 v -30 h -6.5 -6.5 v -6 -6 h 19.5 19.5 v 6 6 h -6.5 -6.5 v 30 30 h -6.5 -6.5 z"
       id="path1" /></g></svg>
